<svg width="153" height="190" viewBox="0 0 153 190" fill="none" xmlns="http://www.w3.org/2000/svg">
<g filter="url(#filter0_f_5_133)">
<path d="M47.7979 164.52L44.9345 170.907L44.9566 170.917L44.9788 170.927L47.7979 164.52ZM28.2667 149.321L22.6127 153.448L22.6297 153.471L22.6469 153.495L28.2667 149.321ZM20.9513 126.878V119.878H13.833L13.9523 126.995L20.9513 126.878ZM51.9173 126.878L58.9073 126.505L58.5539 119.878H51.9173V126.878ZM55.3974 136.253L49.9032 140.59L49.9452 140.644L49.9883 140.696L55.3974 136.253ZM64.0621 142.432L61.4184 148.913L61.4184 148.913L64.0621 142.432ZM88.636 142.148L85.7079 135.79L85.7079 135.79L88.636 142.148ZM97.0877 135.259L102.84 139.248L102.84 139.248L97.0877 135.259ZM96.8746 114.804L91.1484 118.83L91.1844 118.881L91.2213 118.932L96.8746 114.804ZM87.6417 107.702L84.8843 114.136L84.898 114.142L84.9117 114.147L87.6417 107.702ZM59.8718 105.145H52.8718V112.145H59.8718V105.145ZM59.8718 82.5597V75.5597H52.8718V82.5597H59.8718ZM85.7241 80.1449L82.8655 73.7552L82.8497 73.7622L82.8339 73.7694L85.7241 80.1449ZM94.1048 73.4688L99.8394 77.483L99.8549 77.4608L99.8703 77.4385L94.1048 73.4688ZM94.4599 53.7955L88.4844 57.4415L88.5208 57.5012L88.5584 57.5602L94.4599 53.7955ZM87.2156 47.2614L84.0467 53.503L84.0659 53.5127L84.0851 53.5224L87.2156 47.2614ZM64.9854 47.1903L67.7216 53.6335L67.7588 53.6177L67.7958 53.6014L64.9854 47.1903ZM56.6758 53.5114L62.2526 57.7421L62.2526 57.7421L56.6758 53.5114ZM53.3377 63.1705V70.1705H60.0737L60.3325 63.4395L53.3377 63.1705ZM23.8633 63.1705L16.8643 63.0518L16.7436 70.1705H23.8633V63.1705ZM31.0366 41.0114L36.7014 45.1236L36.7014 45.1236L31.0366 41.0114ZM49.7866 26.0256L52.7005 32.3902L52.7091 32.3863L52.7176 32.3824L49.7866 26.0256ZM102.912 26.0256L105.963 19.7255L105.963 19.7255L102.912 26.0256ZM120.454 40.7983L114.644 44.7016L114.661 44.7272L114.678 44.7527L120.454 40.7983ZM126.704 61.5369L119.704 61.4937L119.704 61.5357L119.704 61.5776L126.704 61.5369ZM119.105 81.9205L114.002 77.1284L113.991 77.1403L113.98 77.1522L119.105 81.9205ZM99.2894 92.2898L98.0478 85.4008L92.2894 86.4386V92.2898H99.2894ZM99.2894 93.4261H92.2894V99.5853L98.3985 100.369L99.2894 93.4261ZM123.721 104.577L118.575 109.321L118.594 109.342L118.613 109.363L123.721 104.577ZM132.102 127.162L125.102 127.125L125.102 127.164L125.102 127.202L132.102 127.162ZM124.929 149.25L119.329 145.05L119.319 145.063L119.309 145.076L124.929 149.25ZM105.113 164.449L102.304 158.037L102.304 158.037L105.113 164.449ZM76.136 162.989C66.3359 162.989 57.8753 161.306 50.6171 158.113L44.9788 170.927C54.2925 175.025 64.724 176.989 76.136 176.989V162.989ZM50.6613 158.132C43.376 154.866 37.8684 150.509 33.8865 145.148L22.6469 153.495C28.2294 161.012 35.7426 166.787 44.9345 170.907L50.6613 158.132ZM33.9207 145.194C30.0856 139.94 28.0696 133.878 27.9504 126.761L13.9523 126.995C14.1171 136.829 16.9781 145.729 22.6127 153.448L33.9207 145.194ZM20.9513 133.878H51.9173V119.878H20.9513V133.878ZM44.9272 127.251C45.1908 132.193 46.8441 136.716 49.9032 140.59L60.8916 131.915C59.6893 130.392 59.0225 128.664 58.9073 126.505L44.9272 127.251ZM49.9883 140.696C52.9976 144.36 56.8877 147.065 61.4184 148.913L66.7059 135.95C64.0396 134.863 62.1532 133.449 60.8065 131.81L49.9883 140.696ZM61.4184 148.913C65.9776 150.773 70.9435 151.634 76.207 151.634V137.634C72.4744 137.634 69.3436 137.026 66.7059 135.95L61.4184 148.913ZM76.207 151.634C81.7224 151.634 86.8945 150.656 91.5641 148.506L85.7079 135.79C83.1806 136.953 80.0667 137.634 76.207 137.634V151.634ZM91.5641 148.506C96.1715 146.384 100.015 143.32 102.84 139.248L91.3357 131.269C90.0882 133.068 88.2974 134.597 85.7079 135.79L91.5641 148.506ZM102.84 139.248C105.749 135.053 107.142 130.253 107.142 125.102H93.1417C93.1417 127.622 92.4984 129.593 91.3357 131.269L102.84 139.248ZM107.142 125.102C107.142 119.817 105.628 114.921 102.528 110.676L91.2213 118.932C92.4777 120.653 93.1417 122.623 93.1417 125.102H107.142ZM102.601 110.778C99.5909 106.497 95.3819 103.378 90.3716 101.256L84.9117 114.147C87.9507 115.435 89.897 117.05 91.1484 118.83L102.601 110.778ZM90.3991 101.268C85.3499 99.1037 79.6318 98.1449 73.4371 98.1449V112.145C78.2274 112.145 81.9789 112.891 84.8843 114.136L90.3991 101.268ZM73.4371 98.1449H59.8718V112.145H73.4371V98.1449ZM66.8718 105.145V82.5597H52.8718V105.145H66.8718ZM59.8718 89.5597H73.4371V75.5597H59.8718V89.5597ZM73.4371 89.5597C78.8874 89.5597 83.9992 88.6125 88.6143 86.5204L82.8339 73.7694C80.3467 74.8969 77.2672 75.5597 73.4371 75.5597V89.5597ZM88.5826 86.5346C93.1756 84.4799 97.0295 81.4972 99.8394 77.483L88.3701 69.4545C87.2028 71.1221 85.4695 72.5902 82.8655 73.7552L88.5826 86.5346ZM99.8703 77.4385C102.738 73.273 104.088 68.4974 104.088 63.3835H90.0877C90.0877 65.9401 89.4485 67.888 88.3392 69.499L99.8703 77.4385ZM104.088 63.3835C104.088 58.5678 102.914 54.0323 100.361 50.0307L88.5584 57.5602C89.5095 59.051 90.0877 60.9075 90.0877 63.3835H104.088ZM100.435 50.1494C97.9999 46.1579 94.563 43.1089 90.3461 41.0004L84.0851 53.5224C86.1181 54.5389 87.5108 55.8458 88.4844 57.4415L100.435 50.1494ZM90.3844 41.0197C86.1522 38.871 81.4292 37.9176 76.4201 37.9176V51.9176C79.6496 51.9176 82.1236 52.5267 84.0467 53.503L90.3844 41.0197ZM76.4201 37.9176C71.3873 37.9176 66.6058 38.837 62.1751 40.7793L67.7958 53.6014C70.2779 52.5134 73.1196 51.9176 76.4201 51.9176V37.9176ZM62.2493 40.7472C57.7727 42.6483 53.9851 45.4761 51.0989 49.2807L62.2526 57.7421C63.5331 56.0541 65.2853 54.668 67.7216 53.6335L62.2493 40.7472ZM51.0989 49.2807C48.084 53.2549 46.5359 57.8827 46.3429 62.9014L60.3325 63.4395C60.4236 61.0718 61.1009 59.2603 62.2526 57.7421L51.0989 49.2807ZM53.3377 56.1705H23.8633V70.1705H53.3377V56.1705ZM30.8623 63.2891C30.9815 56.252 32.9583 50.2799 36.7014 45.1236L25.3718 36.8992C19.8346 44.5269 17.0291 53.3275 16.8643 63.0518L30.8623 63.2891ZM36.7014 45.1236C40.5681 39.7969 45.83 35.5358 52.7005 32.3902L46.8726 19.6609C38.0235 23.7123 30.7853 29.4417 25.3718 36.8992L36.7014 45.1236ZM52.7176 32.3824C59.5838 29.2165 67.4874 27.5568 76.5621 27.5568V13.5568C65.7505 13.5568 55.8038 15.5429 46.8556 19.6687L52.7176 32.3824ZM76.5621 27.5568C85.752 27.5568 93.4548 29.2235 99.8606 32.3257L105.963 19.7255C97.3115 15.5359 87.4481 13.5568 76.5621 13.5568V27.5568ZM99.8606 32.3257C106.409 35.4971 111.248 39.6471 114.644 44.7016L126.265 36.8949C121.327 29.5442 114.471 23.8457 105.963 19.7255L99.8606 32.3257ZM114.678 44.7527C118.063 49.6963 119.743 55.2064 119.704 61.4937L133.704 61.5801C133.76 52.5266 131.274 44.2109 126.23 36.8439L114.678 44.7527ZM119.704 61.5776C119.742 68.104 117.771 73.1151 114.002 77.1284L124.207 86.7125C130.666 79.8357 133.761 71.2577 133.704 61.4962L119.704 61.5776ZM113.98 77.1522C110.061 81.3646 104.879 84.1696 98.0478 85.4008L100.531 99.1788C109.988 97.4743 118.016 93.3664 124.23 86.6887L113.98 77.1522ZM92.2894 92.2898V93.4261H106.289V92.2898H92.2894ZM98.3985 100.369C107.978 101.598 114.409 104.803 118.575 109.321L128.868 99.8321C121.859 92.2295 112.003 88.0001 100.18 86.4831L98.3985 100.369ZM118.613 109.363C122.899 113.937 125.141 119.682 125.102 127.125L139.102 127.199C139.158 116.555 135.812 107.243 128.829 99.7905L118.613 109.363ZM125.102 127.202C125.141 134.008 123.213 139.871 119.329 145.05L130.529 153.45C136.304 145.75 139.158 136.888 139.102 127.122L125.102 127.202ZM119.309 145.076C115.354 150.402 109.783 154.76 102.304 158.037L107.923 170.86C117.3 166.751 124.939 160.977 130.548 153.424L119.309 145.076ZM102.304 158.037C94.9088 161.278 86.234 162.989 76.136 162.989V176.989C87.8184 176.989 98.4617 175.006 107.923 170.86L102.304 158.037Z" fill="white"/>
</g>
<defs>
<filter id="filter0_f_5_133" x="0.951294" y="0.556763" width="151.222" height="189.432" filterUnits="userSpaceOnUse" color-interpolation-filters="sRGB">
<feFlood flood-opacity="0" result="BackgroundImageFix"/>
<feBlend mode="normal" in="SourceGraphic" in2="BackgroundImageFix" result="shape"/>
<feGaussianBlur stdDeviation="10" result="effect1_foregroundBlur_5_133"/>
</filter>
</defs>
</svg>
